<svg width="72" height="72" viewBox="0 0 72 72" fill="none" xmlns="http://www.w3.org/2000/svg">
<g clip-path="url(#clip0_51_29)">
<rect width="72" height="72" rx="36" fill="black"/>
<path d="M3 36.2482C3 52.6477 14.7845 66.274 30.287 69L30.2867 66.1044C16.3554 63.4141 5.82857 51.0708 5.82857 36.2503C5.82857 32.7674 6.40993 29.4214 7.48021 26.3052L4.98828 24.8554C3.70184 28.4091 3 32.2461 3 36.2482Z" fill="#FF0000"/>
<path d="M36 3C46.1547 3 55.2381 7.62112 61.2915 14.89L58.7991 16.3395C53.2671 9.91491 45.1045 5.85191 36 5.85191C26.8955 5.85191 18.7329 9.91492 13.2009 16.3395L10.7085 14.89C16.7619 7.62112 25.8453 3 36 3Z" fill="#0000FF"/>
<path d="M67.0117 24.8554C68.2982 28.4091 69 32.2461 69 36.2482C69 52.6477 57.2155 66.274 41.713 69L41.7132 66.1044C55.6446 63.4142 66.1714 51.0708 66.1714 36.2503C66.1714 32.7674 65.5901 29.4214 64.5198 26.3052L67.0117 24.8554Z" fill="#00FF00"/>
<path d="M17 34.5833H54.5M32 46.6667C32 47.4874 31.8383 48.3002 31.5242 49.0584C31.2102 49.8167 30.7498 50.5057 30.1694 51.0861C29.589 51.6665 28.9001 52.1268 28.1418 52.4409C27.3835 52.755 26.5708 52.9167 25.75 52.9167C24.9292 52.9167 24.1165 52.755 23.3582 52.4409C22.5999 52.1268 21.9109 51.6665 21.3306 51.0861C20.7502 50.5057 20.2898 49.8167 19.9758 49.0584C19.6617 48.3002 19.5 47.4874 19.5 46.6667C19.5 45.8459 19.6617 45.0332 19.9758 44.2749C20.2898 43.5166 20.7502 42.8276 21.3306 42.2472C21.9109 41.6669 22.5999 41.2065 23.3582 40.8924C24.1165 40.5783 24.9292 40.4167 25.75 40.4167C26.5708 40.4167 27.3835 40.5783 28.1418 40.8924C28.9001 41.2065 29.589 41.6669 30.1694 42.2472C30.7498 42.8276 31.2102 43.5166 31.5242 44.2749C31.8383 45.0332 32 45.8459 32 46.6667ZM32 46.6667H42.625M42.625 46.6667V40.4167M42.625 46.6667V52.9167M42.625 40.4167L52.625 46.6667L42.625 52.9167M42.625 40.4167V52.9167M52.625 40.4167V52.9167M21.1667 34.5833V26.25C21.1667 24.5924 21.8251 23.0027 22.9972 21.8306C24.1694 20.6585 25.7591 20 27.4167 20H44.0833C45.7409 20 47.3306 20.6585 48.5027 21.8306C49.6749 23.0027 50.3333 24.5924 50.3333 26.25V34.5833H21.1667Z" stroke="#FBFBFB" stroke-width="3" stroke-linecap="round" stroke-linejoin="round"/>
</g>
<defs>
<clipPath id="clip0_51_29">
<rect width="72" height="72" fill="white"/>
</clipPath>
</defs>
</svg>
